<svg width="171" height="45" viewBox="0 0 171 45" fill="none" xmlns="http://www.w3.org/2000/svg">
<path d="M103.048 18.6932H99.5059V25.0441H94.8574V3.87988H103.507C108.547 3.87988 111.612 6.87659 111.612 11.2014V11.2695C111.595 16.1562 107.781 18.6932 103.048 18.6932ZM106.879 11.2865C106.879 9.20926 105.431 8.08549 103.099 8.08549H99.5059V14.5557H103.201C105.534 14.5557 106.896 13.1595 106.896 11.3546V11.2865H106.879Z" fill="white"/>
<path d="M124.035 18.6932H120.494V25.0441H115.845V3.87988H124.495C129.535 3.87988 132.6 6.87659 132.6 11.2014V11.2695C132.583 16.1562 128.769 18.6932 124.035 18.6932ZM127.867 11.2865C127.867 9.20926 126.419 8.08549 124.087 8.08549H120.494V14.5557H124.189C126.522 14.5557 127.884 13.1595 127.884 11.3546V11.2865H127.867Z" fill="white"/>
<path d="M136.48 25.0271V3.87988H141.123V20.8045H151.648V25.0441H136.48V25.0271Z" fill="white"/>
<path d="M162.242 16.6159V25.0441H157.616V16.701L149.532 3.87988H154.955L159.954 12.3933L165.073 3.89691H170.343L162.242 16.6159Z" fill="white"/>
<path d="M78.7197 2.1167L66.2856 25.0446H71.5371L78.7197 11.7876L85.8684 24.9767L85.9022 25.0446H91.1537L78.7197 2.1167Z" fill="white"/>
<path d="M72.0537 41.7986H68.9309V33.5093H72.0537C74.696 33.5093 76.5148 35.2892 76.5148 37.6455C76.5148 39.9848 74.6789 41.7986 72.0537 41.7986ZM72.0537 34.8485H70.4065V40.4764H72.0537C73.821 40.4764 74.9705 39.3067 74.9705 37.6794C74.9705 36.0351 73.821 34.8485 72.0537 34.8485Z" fill="white"/>
<path d="M88.1552 33.5093V41.7986H86.7443V33.5093H88.1552Z" fill="white"/>
<path d="M102.857 41.9751C100.259 41.9751 98.5609 40.1098 98.5609 37.6626C98.5609 35.3181 100.344 33.333 102.84 33.333C104.283 33.333 105.166 33.7437 106.032 34.4625L105.116 35.5748C104.47 35.0272 103.842 34.6849 102.789 34.6849C101.261 34.6849 100.106 36.0198 100.106 37.6455C100.106 39.3739 101.227 40.6403 102.925 40.6403C103.706 40.6403 104.419 40.3836 104.929 40.0071V38.4498H102.789V37.1663H106.321V40.6745C105.506 41.3761 104.334 41.9751 102.857 41.9751Z" fill="white"/>
<path d="M118.314 33.5093V41.7986H116.903V33.5093H118.314Z" fill="white"/>
<path d="M132.992 41.7986H131.52V34.8654H128.896V33.5093H135.598V34.8654H132.975V41.7986H132.992Z" fill="white"/>
<path d="M162.759 33.5093H164.218V40.4737H168.579V41.7986H162.759V33.5093Z" fill="white"/>
<path d="M148.12 36.2798L151.11 41.7987H152.706L148.12 33.333L143.535 41.7987H145.131L148.12 36.2798Z" fill="white"/>
<path d="M26.0812 0L0.5 44.0922H51.647L26.0812 0ZM16.1863 30.8692H28.1562L22.179 20.5589L26.0812 13.8241L39.8784 37.604H12.2841L16.1863 30.8692Z" fill="white"/>
</svg>
