<svg width="12" height="12" viewBox="0 0 12 12" fill="none" xmlns="http://www.w3.org/2000/svg">
<path d="M0.077498 6.38091C0.125092 6.50366 0.196458 6.61581 0.287499 6.71091L5.2875 11.7109C5.38074 11.8042 5.49143 11.8781 5.61325 11.9286C5.73507 11.979 5.86564 12.005 5.9975 12.005C6.2638 12.005 6.51919 11.8992 6.7075 11.7109C6.80074 11.6177 6.8747 11.507 6.92516 11.3852C6.97562 11.2633 7.00159 11.1328 7.00159 11.0009C7.00159 10.7346 6.8958 10.4792 6.7075 10.2909L3.4075 7.00091L10.9975 7.00091C11.2627 7.00091 11.5171 6.89556 11.7046 6.70802C11.8921 6.52048 11.9975 6.26613 11.9975 6.00091C11.9975 5.7357 11.8921 5.48134 11.7046 5.29381C11.5171 5.10627 11.2627 5.00091 10.9975 5.00091L3.4075 5.00091L6.7075 1.71091C6.80123 1.61795 6.87562 1.50735 6.92639 1.38549C6.97716 1.26363 7.0033 1.13292 7.0033 1.00091C7.0033 0.868902 6.97716 0.738196 6.92639 0.616336C6.87562 0.494477 6.80123 0.383877 6.7075 0.290914C6.61454 0.197186 6.50393 0.12279 6.38208 0.072021C6.26022 0.0212521 6.12951 -0.00488523 5.9975 -0.00488524C5.86549 -0.00488526 5.73478 0.0212521 5.61292 0.0720209C5.49106 0.12279 5.38046 0.197186 5.2875 0.290914L0.287499 5.29091C0.196458 5.38602 0.125092 5.49816 0.077498 5.62091C-0.0225195 5.86437 -0.0225196 6.13745 0.077498 6.38091Z" fill="#3B3B3B"/>
</svg>
